<svg width="20" height="20" viewBox="0 0 20 20" fill="none" xmlns="http://www.w3.org/2000/svg">
<path fill-rule="evenodd" clip-rule="evenodd" d="M10 0C10.3853 0 10.6977 0.31236 10.6977 0.69767V3.48884C11.2084 3.48991 11.6717 3.49342 12.0932 3.50495L12.093 3.48837V0.69767C12.093 0.31236 12.4054 0 12.7907 0C13.176 0 13.4884 0.31236 13.4884 0.69767V3.48837C13.4884 3.52487 13.4856 3.56072 13.4802 3.5957C14.4162 3.71067 15.0648 3.94879 15.558 4.44198C16.0512 4.93517 16.2893 5.58381 16.4043 6.51984C16.4393 6.51443 16.4751 6.51163 16.5116 6.51163H19.3023C19.6876 6.51163 20 6.82399 20 7.2093C20 7.5946 19.6876 7.907 19.3023 7.907H16.5116L16.495 7.9068C16.5066 8.3283 16.5106 8.7916 16.5116 9.3023H19.3023C19.6876 9.3023 20 9.6147 20 10C20 10.3853 19.6876 10.6977 19.3023 10.6977H16.5112C16.5101 11.2084 16.5066 11.6717 16.495 12.0932L16.5116 12.093H19.3023C19.6876 12.093 20 12.4054 20 12.7907C20 13.176 19.6876 13.4884 19.3023 13.4884H16.5116C16.4751 13.4884 16.4393 13.4856 16.4043 13.4802C16.2893 14.4162 16.0512 15.0648 15.558 15.558C15.0648 16.0512 14.4162 16.2893 13.4802 16.4043C13.4856 16.4393 13.4884 16.4751 13.4884 16.5116V19.3023C13.4884 19.6876 13.176 20 12.7907 20C12.4054 20 12.093 19.6876 12.093 19.3023V16.5116L12.0932 16.495C11.6717 16.5066 11.2084 16.5106 10.6977 16.5116V19.3023C10.6977 19.6876 10.3853 20 10 20C9.6147 20 9.3023 19.6876 9.3023 19.3023V16.5112C8.7916 16.5101 8.3283 16.5066 7.90678 16.495L7.90698 16.5116V19.3023C7.90698 19.6876 7.59462 20 7.2093 20C6.82399 20 6.51163 19.6876 6.51163 19.3023V16.5116C6.51163 16.4751 6.51443 16.4393 6.51984 16.4043C5.58381 16.2893 4.93517 16.0512 4.44198 15.558C3.94879 15.0648 3.71067 14.4162 3.5957 13.4802C3.56071 13.4856 3.52487 13.4884 3.48837 13.4884H0.69767C0.31236 13.4884 0 13.176 0 12.7907C0 12.4054 0.31236 12.093 0.69767 12.093H3.48837L3.50495 12.0932C3.49342 11.6717 3.48944 11.2084 3.48837 10.6977H0.69767C0.31236 10.6977 0 10.3853 0 10C0 9.6147 0.31236 9.3023 0.69767 9.3023H3.48884C3.48991 8.7916 3.49342 8.3283 3.50495 7.9068L3.48837 7.907H0.69767C0.31236 7.907 0 7.5946 0 7.2093C0 6.82399 0.31236 6.51163 0.69767 6.51163H3.48837C3.52487 6.51163 3.56071 6.51443 3.5957 6.51984C3.71067 5.58381 3.94879 4.93517 4.44198 4.44198C4.93517 3.94879 5.58381 3.71067 6.51984 3.5957C6.51443 3.56072 6.51163 3.52487 6.51163 3.48837V0.69767C6.51163 0.31236 6.82399 0 7.2093 0C7.59462 0 7.90698 0.31236 7.90698 0.69767V3.48837L7.90678 3.50495C8.3283 3.49342 8.7916 3.48944 9.3023 3.48837V0.69767C9.3023 0.31236 9.6147 0 10 0ZM9.0238 5.5814C8.4054 5.58136 7.87247 5.58133 7.44573 5.63871C6.98839 5.70019 6.55001 5.83885 6.19443 6.19443C5.83885 6.55001 5.70019 6.98839 5.63871 7.4457C5.58133 7.8725 5.58136 8.4054 5.5814 9.0238V10.9762C5.58136 11.5946 5.58133 12.1275 5.63871 12.5543C5.70019 13.0116 5.83885 13.45 6.19443 13.8056C6.55001 14.1612 6.98839 14.2998 7.44573 14.3613C7.87247 14.4187 8.4054 14.4186 9.0238 14.4186H10.9762C11.5946 14.4186 12.1275 14.4187 12.5543 14.3613C13.0116 14.2998 13.45 14.1612 13.8056 13.8056C14.1612 13.45 14.2998 13.0116 14.3613 12.5543C14.4187 12.1275 14.4186 11.5946 14.4186 10.9762V9.0238C14.4186 8.4054 14.4187 7.8725 14.3613 7.4457C14.2998 6.98839 14.1612 6.55001 13.8056 6.19443C13.45 5.83885 13.0116 5.70019 12.5543 5.63871C12.1275 5.58133 11.5947 5.58136 10.9762 5.5814H9.0238Z" fill="#4E4E4E"/>
</svg>
