<svg width="20" height="19" viewBox="0 0 20 19" fill="none" xmlns="http://www.w3.org/2000/svg">
<path d="M8.88965 1.56738C9.30187 0.682758 10.5063 0.627312 11.0176 1.40137L11.1104 1.56738L12.5498 4.65527C12.8539 5.3074 13.4529 5.76927 14.1543 5.90137L14.2959 5.92383L17.6768 6.33789C18.6455 6.45657 19.0703 7.58507 18.4922 8.31055L18.3633 8.4502L15.8711 10.7725C15.3445 11.2632 15.0904 11.9764 15.1816 12.6846L15.2041 12.8262L15.8555 16.1699C16.0418 17.1279 15.0991 17.8807 14.2305 17.5547L14.0586 17.4756L11.0791 15.8232C10.4496 15.4741 9.69322 15.4521 9.04785 15.7578L8.9209 15.8232L5.94141 17.4756C5.08804 17.9486 4.08083 17.285 4.12207 16.3584L4.14453 16.1699L4.7959 12.8262C4.9334 12.1198 4.72027 11.3933 4.23047 10.874L4.12891 10.7725L1.63672 8.4502C0.922755 7.78477 1.24249 6.62204 2.13672 6.375L2.32324 6.33789L5.7041 5.92383C6.4186 5.83629 7.04328 5.4088 7.38574 4.78223L7.4502 4.65527L8.88965 1.56738Z" fill="url(#paint0_linear_14131_195)" stroke="#FFB547"/>
<defs>
<linearGradient id="paint0_linear_14131_195" x1="9.11898" y1="9.85054" x2="17.8781" y2="9.85054" gradientUnits="userSpaceOnUse">
<stop offset="0.394791" stop-color="#FFB547"/>
<stop offset="0.394891" stop-color="#FFB547" stop-opacity="0"/>
</linearGradient>
</defs>
</svg>
