<svg width="23" height="22" viewBox="0 0 23 22" fill="none" xmlns="http://www.w3.org/2000/svg">
<path d="M11.6667 21.75C11.0367 21.75 10.4067 21.54 9.91669 21.12L8.33669 19.76C8.17669 19.62 7.77669 19.48 7.56669 19.48H5.84669C4.36669 19.48 3.16669 18.28 3.16669 16.8V15.09C3.16669 14.88 3.02669 14.49 2.88669 14.33L1.53669 12.74C0.716692 11.77 0.716692 10.24 1.53669 9.27L2.88669 7.68C3.02669 7.52 3.16669 7.13 3.16669 6.92V5.2C3.16669 3.72 4.36669 2.52 5.84669 2.52H7.57669C7.78669 2.52 8.18669 2.37 8.34669 2.24L9.92669 0.88C10.9067 0.04 12.4367 0.04 13.4167 0.88L14.9967 2.24C15.1567 2.38 15.5567 2.52 15.7667 2.52H17.4667C18.9467 2.52 20.1467 3.72 20.1467 5.2V6.9C20.1467 7.11 20.2967 7.51 20.4367 7.67L21.7967 9.25C22.6367 10.23 22.6367 11.76 21.7967 12.74L20.4367 14.32C20.2967 14.48 20.1467 14.88 20.1467 15.09V16.79C20.1467 18.27 18.9467 19.47 17.4667 19.47H15.7667C15.5567 19.47 15.1567 19.62 14.9967 19.75L13.4167 21.11C12.9267 21.54 12.2967 21.75 11.6667 21.75ZM5.84669 4.02C5.19669 4.02 4.66669 4.55 4.66669 5.2V6.91C4.66669 7.48 4.39669 8.21 4.02669 8.64L2.67669 10.23C2.32669 10.64 2.32669 11.35 2.67669 11.76L4.02669 13.35C4.39669 13.79 4.66669 14.51 4.66669 15.08V16.79C4.66669 17.44 5.19669 17.97 5.84669 17.97H7.57669C8.15669 17.97 8.88669 18.24 9.32669 18.62L10.9067 19.98C11.3167 20.33 12.0367 20.33 12.4467 19.98L14.0267 18.62C14.4667 18.25 15.1967 17.97 15.7767 17.97H17.4767C18.1267 17.97 18.6567 17.44 18.6567 16.79V15.09C18.6567 14.51 18.9267 13.78 19.3067 13.34L20.6667 11.76C21.0167 11.35 21.0167 10.63 20.6667 10.22L19.3067 8.64C18.9267 8.2 18.6567 7.47 18.6567 6.89V5.2C18.6567 4.55 18.1267 4.02 17.4767 4.02H15.7767C15.1967 4.02 14.4667 3.75 14.0267 3.37L12.4467 2.01C12.0367 1.66 11.3167 1.66 10.9067 2.01L9.32669 3.38C8.88669 3.75 8.14669 4.02 7.57669 4.02H5.84669Z" fill="#797979"/>
</svg>
